<?xml version="1.0" encoding="UTF-8" standalone="no"?>
<!-- Created with Inkscape (http://www.inkscape.org/) -->

<svg
   xmlns:dc="http://purl.org/dc/elements/1.1/"
   xmlns:cc="http://creativecommons.org/ns#"
   xmlns:rdf="http://www.w3.org/1999/02/22-rdf-syntax-ns#"
   xmlns:svg="http://www.w3.org/2000/svg"
   xmlns="http://www.w3.org/2000/svg"
   xmlns:sodipodi="http://sodipodi.sourceforge.net/DTD/sodipodi-0.dtd"
   xmlns:inkscape="http://www.inkscape.org/namespaces/inkscape"
   width="48"
   height="48"
   viewBox="0 0 55.2 55.2"
   id="svg2"
   version="1.1"
   inkscape:version="0.92.4 (5da689c313, 2019-01-14)"
   sodipodi:docname="Main.svg"
   inkscape:export-filename="Main.png"
   inkscape:export-xdpi="96"
   inkscape:export-ydpi="96">
  <defs
     id="defs4" />
  <sodipodi:namedview
     id="base"
     pagecolor="#ffffff"
     bordercolor="#666666"
     borderopacity="1.0"
     inkscape:pageopacity="0.0"
     inkscape:pageshadow="2"
     inkscape:zoom="2.828427"
     inkscape:cx="-5.7447919"
     inkscape:cy="11.946264"
     inkscape:document-units="px"
     inkscape:current-layer="layer5"
     showgrid="false"
     units="px">
    <inkscape:grid
       type="xygrid"
       id="grid5844" />
  </sodipodi:namedview>
  <metadata
     id="metadata7">
    <rdf:RDF>
      <cc:Work
         rdf:about="">
        <dc:format>image/svg+xml</dc:format>
        <dc:type
           rdf:resource="http://purl.org/dc/dcmitype/StillImage" />
        <dc:title />
      </cc:Work>
    </rdf:RDF>
  </metadata>
  <g
     inkscape:groupmode="layer"
     id="layer2"
     inkscape:label="Background"
     style="display:inline">
    <g
       id="g4167-2-2"
       style="display:inline;stroke:#646464;stroke-width:0.93730497;stroke-linecap:round;stroke-miterlimit:4;stroke-dasharray:none;stroke-opacity:1;paint-order:normal"
       transform="matrix(1.0747784,0,0,1.0747888,1.9059499,1.9039177)" />
    <circle
       style="display:inline;opacity:1;fill:#ffdc00;fill-opacity:1;fill-rule:evenodd;stroke:none;stroke-width:4.40254784;stroke-linecap:round;stroke-linejoin:round;stroke-miterlimit:4;stroke-dasharray:none;stroke-dashoffset:0;stroke-opacity:1;paint-order:normal"
       id="path884"
       cx="27.6"
       cy="27.6"
       r="27.6" />
  </g>
  <g
     inkscape:groupmode="layer"
     id="layer1"
     inkscape:label="Gear"
     style="display:inline"
     transform="translate(0,7.2)">
    <circle
       style="opacity:1;fill:#00ffff;fill-opacity:1;fill-rule:evenodd;stroke:none;stroke-width:1.42047155;stroke-linecap:round;stroke-linejoin:round;stroke-miterlimit:4;stroke-dasharray:none;stroke-dashoffset:0;stroke-opacity:1;paint-order:normal"
       id="path833"
       cx="26.219999"
       cy="20.4"
       r="0" />
  </g>
  <g
     inkscape:groupmode="layer"
     id="layer5"
     inkscape:label="Wrench"
     style="display:inline">
    <path
       inkscape:connector-curvature="0"
       style="display:inline;opacity:1;fill:#cb0096;fill-opacity:1;fill-rule:evenodd;stroke:none;stroke-width:3.8348999;stroke-linecap:round;stroke-linejoin:round;stroke-miterlimit:4;stroke-dasharray:none;stroke-dashoffset:0;stroke-opacity:1;paint-order:normal"
       d="m 27.672745,18.420184 a 9.2525694,9.2525694 0 0 0 -2.749439,0.428551 l 5.793182,5.795764 0.0027,0.0027 a 4.2958359,4.2958359 0 0 1 1.24941,3.025573 4.2958359,4.2958359 0 0 1 -4.295835,4.295835 4.2958359,4.2958359 0 0 1 -3.025674,-1.24951 l -0.0027,0.0027 -0.05422,-0.0568 -5.749295,-5.746712 a 9.2525694,9.2525694 0 0 0 -0.420698,2.754504 9.2525694,9.2525694 0 0 0 9.25257,9.252569 9.2525694,9.2525694 0 0 0 2.850122,-0.454368 l 16.362385,16.362384 a 4.2059537,4.2059537 0 0 0 0.02065,0.02066 4.2059537,4.2059537 0 0 0 2.997267,1.254668 4.2059537,4.2059537 0 0 0 4.20548,-4.20548 4.2059537,4.2059537 0 0 0 -1.257255,-2.994694 l 0.0027,-0.0027 -16.388299,-16.3881 a 9.2525694,9.2525694 0 0 0 0.459529,-2.844958 9.2525694,9.2525694 0 0 0 -9.252569,-9.252571 z"
       id="path834"
       transform="matrix(0.94884361,0,0,0.94884361,-6.8094306,-6.8091298)" />
  </g>
  <g
     inkscape:groupmode="layer"
     id="layer4"
     inkscape:label="Invisible"
     style="display:none" />
</svg>
